<?xml version="1.0" encoding="UTF-8" standalone="no"?>
<!-- Created with Inkscape (http://www.inkscape.org/) -->

<svg
   width="73mm"
   height="30mm"
   viewBox="0 0 73 30"
   version="1.1"
   id="svg5"
   xmlns="http://www.w3.org/2000/svg"
   xmlns:svg="http://www.w3.org/2000/svg">
  <defs
     id="defs2">
    <marker
       style="overflow:visible"
       id="marker1513"
       refX="0"
       refY="0"
       orient="auto">
      <path
         transform="matrix(0.2,0,0,0.2,1.2,0)"
         style="fill:context-stroke;fill-rule:evenodd;stroke:context-stroke;stroke-width:1pt"
         d="M 0,0 5,-5 -12.5,0 5,5 Z"
         id="path1511" />
    </marker>
    <marker
       style="overflow:visible"
       id="DotS"
       refX="0"
       refY="0"
       orient="auto">
      <path
         transform="matrix(0.2,0,0,0.2,1.48,0.2)"
         style="fill:context-stroke;fill-rule:evenodd;stroke:context-stroke;stroke-width:1pt"
         d="m -2.5,-1 c 0,2.76 -2.24,5 -5,5 -2.76,0 -5,-2.24 -5,-5 0,-2.76 2.24,-5 5,-5 2.76,0 5,2.24 5,5 z"
         id="path1274" />
    </marker>
    <marker
       orient="auto"
       refY="0"
       refX="0"
       id="DistanceEnd"
       style="overflow:visible">
      <g
         id="g2301">
        <path
           id="path2316"
           d="M 0,0 H -2"
           style="fill:none;stroke:context-fill;stroke-width:1.15;stroke-linecap:square" />
        <path
           id="path2312"
           d="m 0,0 -13,4 4,-4 -4,-4 z"
           style="fill:context-stroke;fill-rule:evenodd;stroke:none" />
        <path
           id="path2314"
           d="M 0,-4 V 40"
           style="fill:none;stroke:context-stroke;stroke-width:1;stroke-linecap:square" />
      </g>
    </marker>
    <marker
       style="overflow:visible"
       id="Arrow1Sstart"
       refX="0"
       refY="0"
       orient="auto">
      <path
         transform="matrix(0.2,0,0,0.2,1.2,0)"
         style="fill:context-stroke;fill-rule:evenodd;stroke:context-stroke;stroke-width:1pt"
         d="M 0,0 5,-5 -12.5,0 5,5 Z"
         id="path1219" />
    </marker>
    <marker
       style="overflow:visible"
       id="Arrow1Lstart"
       refX="0"
       refY="0"
       orient="auto">
      <path
         transform="matrix(0.8,0,0,0.8,10,0)"
         style="fill:context-stroke;fill-rule:evenodd;stroke:context-stroke;stroke-width:1pt"
         d="M 0,0 5,-5 -12.5,0 5,5 Z"
         id="path1207" />
    </marker>
  </defs>
  <g
     id="layer1">
    <path
       style="fill:none;stroke:#ffffff;stroke-width:4;stroke-linecap:round;stroke-linejoin:round;stroke-miterlimit:4;stroke-dasharray:none;stroke-opacity:1"
       d="m 15,21 a 5,5 0 0 1 -4.024552,4.903927 5,5 0 0 1 -5.5948484,-2.990516 5,5 0 0 1 1.8415581,-6.070765 5,5 0 0 1 6.3133863,0.62183 L 6.46447,24.53553"
       id="path887" />
    <path
       style="fill:none;stroke:#ffffff;stroke-width:4;stroke-linecap:round;stroke-linejoin:round;stroke-miterlimit:4;stroke-dasharray:none;stroke-opacity:1"
       d="m 18,16 h 8 l -8,10 h 8"
       id="path889" />
    <path
       style="fill:none;stroke:#ffffff;stroke-width:6;stroke-linecap:butt;stroke-linejoin:miter;stroke-miterlimit:4;stroke-dasharray:none;stroke-opacity:1"
       d="M 41,19 v 1 A 5,5 0 0 1 31,20 V 10 a 5,5 0 0 1 10,0 v 1"
       id="path891" />
    <path
       style="fill:none;stroke:#ffffff;stroke-width:6;stroke-linecap:square;stroke-linejoin:miter;stroke-miterlimit:4;stroke-dasharray:none;stroke-opacity:1"
       d="m 47,5 v 20 h 7"
       id="path893" />
    <path
       style="fill:none;stroke:#ffffff;stroke-width:6;stroke-linecap:square;stroke-linejoin:miter;stroke-miterlimit:4;stroke-dasharray:none;stroke-opacity:1"
       d="m 60,5 h 6 m -3,0 v 20 m -3,0 h 6"
       id="path895" />
    <path
       style="fill:none;stroke:#062f80;stroke-width:2;stroke-linecap:round;stroke-linejoin:round;stroke-miterlimit:4;stroke-dasharray:none;stroke-opacity:1"
       d="m 15,21 a 5,5 0 0 1 -4.024552,4.903927 5,5 0 0 1 -5.5948484,-2.990516 5,5 0 0 1 1.8415581,-6.070765 5,5 0 0 1 6.3133863,0.62183 L 6.46447,24.53553"
       id="path2237" />
    <path
       style="fill:none;stroke:#062f80;stroke-width:2;stroke-linecap:round;stroke-linejoin:round;stroke-miterlimit:4;stroke-dasharray:none;stroke-opacity:1"
       d="m 18,16 h 8 l -8,10 h 8"
       id="path3033" />
    <path
       style="fill:none;stroke:#000000;stroke-width:4;stroke-linecap:butt;stroke-linejoin:miter;stroke-miterlimit:4;stroke-dasharray:none;stroke-opacity:1"
       d="M 41,20 A 5,5 0 0 1 31,20 V 10 a 5,5 0 0 1 10,0"
       id="path5492" />
    <path
       style="fill:none;stroke:#000000;stroke-width:4;stroke-linecap:square;stroke-linejoin:miter;stroke-miterlimit:4;stroke-dasharray:none;stroke-opacity:1"
       d="m 47,5 v 20 h 7"
       id="path5861" />
    <path
       style="fill:none;stroke:#000000;stroke-width:4;stroke-linecap:square;stroke-linejoin:miter;stroke-miterlimit:4;stroke-dasharray:none;stroke-opacity:1"
       d="m 60,5 h 6 m -3,0 v 20 m -3,0 h 6"
       id="path5963" />
  </g>
</svg>
